# xmcd
#
# Track frame offsets:
# 150
# 14577
# 32578
# 48346
# 72468
# 95888
# 116589
# 135405
# 150263
# 172343
# 191240
# 208981
#
# Disc length: 2973 seconds
#
#
# Revision: 3
# Processed by: cddbd v1.5.2PL0 Copyright (c) Steve Scherf et al.
# Submitted via: FreeRIP 2.945 
#
DISCID=b10b9b0c
DTITLE=SAAS - Saas
DYEAR=2006
DGENRE=Gospel
TTITLE0=O Chamado (Saas Apresenta - Daniel Ribeiro)
TTITLE1=Deixo a Tristesa (Saas Apresenta - Raiz Coral)
TTITLE2=Tudo Posso (Saas Apresenta - Família Soul)
TTITLE3=Jesus Está Voltando (Saas Apresenta - Extrma Unção)
TTITLE4=Tenho que Estar Preparado (Saas Apresenta - Ton Carfi)
TTITLE5=Seu Grandioso Amor (Saas Apresenta - Danilo)
TTITLE6=Acredito em Ti (Saas Apresenta - Blackness Boyz)
TTITLE7=Encontrar Você (Saas Apresenta - Bob Jonathan)
TTITLE8=Doce Presença (Saas Apresenta - Bruno Bhering)
TTITLE9=Meu Grande Amor (Saas Apresenta - Daniel Ribeiro and Dani Araújo)
TTITLE10=Vem Ser Feliz (Saas Apresenta - Jessé)
TTITLE11=Esperando (Saas Apresenta - Daniel Ribeiro)
EXTD=YEAR: 2006
EXTT0=
EXTT1=
EXTT2=
EXTT3=
EXTT4=
EXTT5=
EXTT6=
EXTT7=
EXTT8=
EXTT9=
EXTT10=
EXTT11=
PLAYORDER=
